<svg width="60.186738" height="60.186738" xmlns="http://www.w3.org/2000/svg">
 <defs>
  <radialGradient id="a" gradientUnits="userSpaceOnUse" cy="442.72311" cx="-122.3936" gradientTransform="matrix(1,0,0,-1,138.53721618652344,453.7333984375)" r="29.5804">
   <stop stop-color="#fff" offset="0"/>
   <stop stop-color="#007808" offset="1"/>
  </radialGradient>
 </defs>
 <g>
  <title>Layer 1</title>
  <g id="svg_1">
   <polygon points="0.511 12.364 0.511 5.078 5.402 6.763 5.402 13.541" fill="#0b4819" id="svg_2"/>
   <polygon points="4.455 42.317 4.455 15.226 9.13 16.215 9.13 41.393" fill="#0b4819" id="svg_3"/>
   <polygon points="27.321 5.066 15.306 18.846 15.306 24.71 33.126 4.617 61.351 2.432 19.834 45.706 25.361 45.997 55.516 15.154 55.516 44.305 52.166 47.454 60.662 47.913 60.662 55.981 34.012 53.917 47.597 40.738 47.597 34.243 28.175 53.465 4.919 51.667 42.222 11.55 36.083 11.882 9.13 41.393 9.13 16.215 11.683 13.201 5.402 13.541 5.402 6.763" fill="#105c80" id="svg_4"/>
   <polygon points="4.455 15.226 7.159 11.971 11.683 13.201 9.13 16.215" fill="#0b4819" id="svg_5"/>
   <polygon points="11.004 18.039 15.306 18.846 15.306 24.71 11.004 24.358" fill="#084010" id="svg_6"/>
   <polygon points="15.82 47.006 19.834 45.706 25.361 45.997 21.714 47.346" fill="#0c541e" id="svg_7"/>
   <polygon points="23.808 3.106 27.321 5.066 15.306 18.846 11.004 18.039" fill="#1a5c34" id="svg_8"/>
   <polygon points="11.004 24.358 30.022 2.58 33.126 4.617 15.306 24.71" fill="#0b4819" id="svg_9"/>
   <polygon points="33.195 10.432 36.083 11.882 9.13 41.393 4.455 42.317" fill="#1a5c34" id="svg_10"/>
   <polygon points="0 53.344 39.798 10.042 42.222 11.55 4.919 51.667" fill="#0b4819" id="svg_11"/>
   <polygon points="45.597 34.677 47.597 34.243 28.175 53.465 24.721 55.437" fill="#1a5c34" id="svg_12"/>
   <polygon points="45.597 41.737 45.597 34.677 47.597 34.243 47.597 40.738" fill="#0b4819" id="svg_13"/>
   <polygon points="30.973 55.965 45.597 41.737 47.597 40.738 34.012 53.917" fill="#0b4819" id="svg_14"/>
   <polygon points="54.168 45.648 50.538 49.059 52.166 47.454 55.516 44.305" fill="#13802d" id="svg_15"/>
   <polygon points="21.714 47.346 54.168 13.9 55.516 15.154 25.361 45.997" fill="#0b4819" id="svg_16"/>
   <polygon points="54.168 13.9 55.516 15.154 55.516 44.305 54.168 45.648" fill="#084010" id="svg_17"/>
   <polygon points="59.759 49.604 60.662 47.913 60.662 55.981 59.759 58.403" fill="#084010" id="svg_18"/>
   <polygon points="60.507 0 61.351 2.432 19.834 45.706 15.82 47.006" fill="#1a5c34" id="svg_19"/>
   <polygon points="23.808 3.106 11.004 18.039 11.004 24.358 30.022 2.58 60.507 0 15.82 47.006 21.714 47.346 54.168 13.9 54.168 45.648 50.538 49.059 59.759 49.604 59.759 58.403 30.973 55.965 45.597 41.737 45.597 34.677 24.721 55.437 0 53.344 39.798 10.042 33.195 10.432 4.455 42.317 4.455 15.226 7.159 11.971 0.511 12.364 0.511 5.078" fill="url(#a)" id="svg_20"/>
  </g>
 </g>
</svg>